<?xml version="1.0" encoding="UTF-8"?>
<svg xmlns="http://www.w3.org/2000/svg" width="1280" height="395" font-family="ui-monospace, Menlo, monospace">
<rect width="100%" height="100%" fill="white"/>
<text x="10" y="20" font-size="13" font-weight="bold" fill="#222">test_06_bare_mode_passthrough</text>
<text x="160" y="20" font-size="10" fill="#666">2070 ns</text>
<text x="1260" y="20" font-size="10" fill="#666" text-anchor="end">2400 ns</text>
<line x1="160" y1="30" x2="1260" y2="30" stroke="#888"/>
<line x1="260.0" y1="30" x2="260.0" y2="379" stroke="#eee" stroke-width="0.5"/>
<text x="260.0" y="27" font-size="9" fill="#888" text-anchor="middle">2100</text>
<line x1="593.3" y1="30" x2="593.3" y2="379" stroke="#eee" stroke-width="0.5"/>
<text x="593.3" y="27" font-size="9" fill="#888" text-anchor="middle">2200</text>
<line x1="926.6" y1="30" x2="926.6" y2="379" stroke="#eee" stroke-width="0.5"/>
<text x="926.6" y="27" font-size="9" fill="#888" text-anchor="middle">2300</text>
<line x1="1260.0" y1="30" x2="1260.0" y2="379" stroke="#eee" stroke-width="0.5"/>
<text x="1260.0" y="27" font-size="9" fill="#888" text-anchor="middle">2400</text>
<text x="6" y="46.0" font-size="11" font-weight="bold" fill="#666">[tr_ar]</text>
<line x1="1160.0" y1="35.0" x2="1160.0" y2="107.0" stroke="#e0a800" stroke-width="1" stroke-dasharray="3,2" opacity="0.7"/>
<text x="1160.0" y="33.0" font-size="11" text-anchor="middle" fill="#e0a800">★</text>
<text x="152" y="57.0" font-size="11" text-anchor="end" fill="#333">tr_arvalid</text>
<line x1="160.0" y1="63.0" x2="1260.0" y2="63.0" stroke="#eee" stroke-width="0.5"/>
<polyline points="160.0,63.0 1093.3,63.0 1093.3,43.0 1193.3,43.0 1193.3,63.0 1260.0,63.0" stroke="#1a8a1a" fill="none" stroke-width="1.5"/>
<text x="152" y="93.0" font-size="11" text-anchor="end" fill="#333">tr_arready</text>
<line x1="160.0" y1="99.0" x2="1260.0" y2="99.0" stroke="#eee" stroke-width="0.5"/>
<polyline points="160.0,99.0 1160.0,99.0 1160.0,79.0 1193.3,79.0 1193.3,99.0 1260.0,99.0" stroke="#1a8a1a" fill="none" stroke-width="1.5"/>
<text x="6" y="132.0" font-size="11" font-weight="bold" fill="#666">[tr_r]</text>
<line x1="1226.7" y1="121.0" x2="1226.7" y2="193.0" stroke="#e0a800" stroke-width="1" stroke-dasharray="3,2" opacity="0.7"/>
<text x="1226.7" y="119.0" font-size="11" text-anchor="middle" fill="#e0a800">★</text>
<text x="152" y="143.0" font-size="11" text-anchor="end" fill="#333">tr_rvalid</text>
<line x1="160.0" y1="149.0" x2="1260.0" y2="149.0" stroke="#eee" stroke-width="0.5"/>
<polyline points="160.0,149.0 1226.7,149.0 1226.7,129.0 1260.0,129.0 1260.0,149.0 1260.0,149.0" stroke="#1a8a1a" fill="none" stroke-width="1.5"/>
<text x="152" y="179.0" font-size="11" text-anchor="end" fill="#333">tr_rready</text>
<line x1="160.0" y1="185.0" x2="1260.0" y2="185.0" stroke="#eee" stroke-width="0.5"/>
<polyline points="160.0,185.0 526.7,185.0 526.7,165.0 1260.0,165.0 1260.0,185.0 1260.0,185.0" stroke="#1a8a1a" fill="none" stroke-width="1.5"/>
<text x="6" y="218.0" font-size="11" font-weight="bold" fill="#666">[comp_ar]</text>
<line x1="1160.0" y1="207.0" x2="1160.0" y2="279.0" stroke="#e0a800" stroke-width="1" stroke-dasharray="3,2" opacity="0.7"/>
<text x="1160.0" y="205.0" font-size="11" text-anchor="middle" fill="#e0a800">★</text>
<text x="152" y="229.0" font-size="11" text-anchor="end" fill="#333">comp_arvalid</text>
<line x1="160.0" y1="235.0" x2="1260.0" y2="235.0" stroke="#eee" stroke-width="0.5"/>
<polyline points="160.0,235.0 1160.0,235.0 1160.0,215.0 1193.3,215.0 1193.3,235.0 1260.0,235.0" stroke="#1a8a1a" fill="none" stroke-width="1.5"/>
<text x="152" y="265.0" font-size="11" text-anchor="end" fill="#333">comp_arready</text>
<line x1="160.0" y1="271.0" x2="1260.0" y2="271.0" stroke="#eee" stroke-width="0.5"/>
<polyline points="160.0,271.0 526.7,271.0 526.7,251.0 1260.0,251.0 1260.0,271.0 1260.0,271.0" stroke="#1a8a1a" fill="none" stroke-width="1.5"/>
<text x="6" y="304.0" font-size="11" font-weight="bold" fill="#666">[comp_r]</text>
<line x1="1226.7" y1="293.0" x2="1226.7" y2="365.0" stroke="#e0a800" stroke-width="1" stroke-dasharray="3,2" opacity="0.7"/>
<text x="1226.7" y="291.0" font-size="11" text-anchor="middle" fill="#e0a800">★</text>
<text x="152" y="315.0" font-size="11" text-anchor="end" fill="#333">comp_rvalid</text>
<line x1="160.0" y1="321.0" x2="1260.0" y2="321.0" stroke="#eee" stroke-width="0.5"/>
<polyline points="160.0,321.0 1226.7,321.0 1226.7,301.0 1260.0,301.0 1260.0,321.0 1260.0,321.0" stroke="#1a8a1a" fill="none" stroke-width="1.5"/>
<text x="152" y="351.0" font-size="11" text-anchor="end" fill="#333">comp_rready</text>
<line x1="160.0" y1="357.0" x2="1260.0" y2="357.0" stroke="#eee" stroke-width="0.5"/>
<polyline points="160.0,357.0 1226.7,357.0 1226.7,337.0 1260.0,337.0 1260.0,357.0 1260.0,357.0" stroke="#1a8a1a" fill="none" stroke-width="1.5"/>
</svg>