<?xml version="1.0" encoding="UTF-8"?>
<svg xmlns="http://www.w3.org/2000/svg" width="1280" height="481" font-family="ui-monospace, Menlo, monospace">
<rect width="100%" height="100%" fill="white"/>
<text x="10" y="20" font-size="13" font-weight="bold" fill="#222">test_05_configure_bare_mode</text>
<text x="160" y="20" font-size="10" fill="#666">1740 ns</text>
<text x="1260" y="20" font-size="10" fill="#666" text-anchor="end">2070 ns</text>
<line x1="160" y1="30" x2="1260" y2="30" stroke="#888"/>
<line x1="360.0" y1="30" x2="360.0" y2="465" stroke="#eee" stroke-width="0.5"/>
<text x="360.0" y="27" font-size="9" fill="#888" text-anchor="middle">1800</text>
<line x1="693.3" y1="30" x2="693.3" y2="465" stroke="#eee" stroke-width="0.5"/>
<text x="693.3" y="27" font-size="9" fill="#888" text-anchor="middle">1900</text>
<line x1="1026.7" y1="30" x2="1026.7" y2="465" stroke="#eee" stroke-width="0.5"/>
<text x="1026.7" y="27" font-size="9" fill="#888" text-anchor="middle">2000</text>
<text x="6" y="46.0" font-size="11" font-weight="bold" fill="#666">[prog_aw]</text>
<line x1="893.3" y1="35.0" x2="893.3" y2="107.0" stroke="#e0a800" stroke-width="1" stroke-dasharray="3,2" opacity="0.7"/>
<text x="893.3" y="33.0" font-size="11" text-anchor="middle" fill="#e0a800">★</text>
<text x="152" y="57.0" font-size="11" text-anchor="end" fill="#333">prog_awvalid</text>
<line x1="160.0" y1="63.0" x2="1260.0" y2="63.0" stroke="#eee" stroke-width="0.5"/>
<polyline points="160.0,63.0 893.3,63.0 893.3,43.0 926.7,43.0 926.7,63.0 1260.0,63.0" stroke="#1a8a1a" fill="none" stroke-width="1.5"/>
<text x="152" y="93.0" font-size="11" text-anchor="end" fill="#333">prog_awready</text>
<line x1="160.0" y1="99.0" x2="1260.0" y2="99.0" stroke="#eee" stroke-width="0.5"/>
<polyline points="160.0,79.0 1260.0,79.0" stroke="#1a8a1a" fill="none" stroke-width="1.5"/>
<text x="6" y="132.0" font-size="11" font-weight="bold" fill="#666">[prog_w]</text>
<line x1="893.3" y1="121.0" x2="893.3" y2="193.0" stroke="#e0a800" stroke-width="1" stroke-dasharray="3,2" opacity="0.7"/>
<text x="893.3" y="119.0" font-size="11" text-anchor="middle" fill="#e0a800">★</text>
<text x="152" y="143.0" font-size="11" text-anchor="end" fill="#333">prog_wvalid</text>
<line x1="160.0" y1="149.0" x2="1260.0" y2="149.0" stroke="#eee" stroke-width="0.5"/>
<polyline points="160.0,149.0 893.3,149.0 893.3,129.0 926.7,129.0 926.7,149.0 1260.0,149.0" stroke="#1a8a1a" fill="none" stroke-width="1.5"/>
<text x="152" y="179.0" font-size="11" text-anchor="end" fill="#333">prog_wready</text>
<line x1="160.0" y1="185.0" x2="1260.0" y2="185.0" stroke="#eee" stroke-width="0.5"/>
<polyline points="160.0,165.0 1260.0,165.0" stroke="#1a8a1a" fill="none" stroke-width="1.5"/>
<text x="6" y="218.0" font-size="11" font-weight="bold" fill="#666">[prog_b]</text>
<line x1="1026.7" y1="207.0" x2="1026.7" y2="279.0" stroke="#e0a800" stroke-width="1" stroke-dasharray="3,2" opacity="0.7"/>
<text x="1026.7" y="205.0" font-size="11" text-anchor="middle" fill="#e0a800">★</text>
<text x="152" y="229.0" font-size="11" text-anchor="end" fill="#333">prog_bvalid</text>
<line x1="160.0" y1="235.0" x2="1260.0" y2="235.0" stroke="#eee" stroke-width="0.5"/>
<polyline points="160.0,235.0 1026.7,235.0 1026.7,215.0 1060.0,215.0 1060.0,235.0 1260.0,235.0" stroke="#1a8a1a" fill="none" stroke-width="1.5"/>
<text x="152" y="265.0" font-size="11" text-anchor="end" fill="#333">prog_bready</text>
<line x1="160.0" y1="271.0" x2="1260.0" y2="271.0" stroke="#eee" stroke-width="0.5"/>
<polyline points="160.0,251.0 160.0,251.0 160.0,271.0 526.7,271.0 526.7,251.0 1260.0,251.0" stroke="#1a8a1a" fill="none" stroke-width="1.5"/>
<text x="6" y="304.0" font-size="11" font-weight="bold" fill="#666">[prog_ar]</text>
<line x1="693.3" y1="293.0" x2="693.3" y2="365.0" stroke="#e0a800" stroke-width="1" stroke-dasharray="3,2" opacity="0.7"/>
<text x="693.3" y="291.0" font-size="11" text-anchor="middle" fill="#e0a800">★</text>
<line x1="1093.3" y1="293.0" x2="1093.3" y2="365.0" stroke="#e0a800" stroke-width="1" stroke-dasharray="3,2" opacity="0.7"/>
<text x="1093.3" y="291.0" font-size="11" text-anchor="middle" fill="#e0a800">★</text>
<text x="152" y="315.0" font-size="11" text-anchor="end" fill="#333">prog_arvalid</text>
<line x1="160.0" y1="321.0" x2="1260.0" y2="321.0" stroke="#eee" stroke-width="0.5"/>
<polyline points="160.0,321.0 693.3,321.0 693.3,301.0 726.7,301.0 726.7,321.0 1093.3,321.0 1093.3,301.0 1126.7,301.0 1126.7,321.0 1260.0,321.0" stroke="#1a8a1a" fill="none" stroke-width="1.5"/>
<text x="152" y="351.0" font-size="11" text-anchor="end" fill="#333">prog_arready</text>
<line x1="160.0" y1="357.0" x2="1260.0" y2="357.0" stroke="#eee" stroke-width="0.5"/>
<polyline points="160.0,337.0 1260.0,337.0" stroke="#1a8a1a" fill="none" stroke-width="1.5"/>
<text x="6" y="390.0" font-size="11" font-weight="bold" fill="#666">[prog_r]</text>
<line x1="160.0" y1="379.0" x2="160.0" y2="451.0" stroke="#e0a800" stroke-width="1" stroke-dasharray="3,2" opacity="0.7"/>
<text x="160.0" y="377.0" font-size="11" text-anchor="middle" fill="#e0a800">★</text>
<line x1="826.7" y1="379.0" x2="826.7" y2="451.0" stroke="#e0a800" stroke-width="1" stroke-dasharray="3,2" opacity="0.7"/>
<text x="826.7" y="377.0" font-size="11" text-anchor="middle" fill="#e0a800">★</text>
<line x1="1226.7" y1="379.0" x2="1226.7" y2="451.0" stroke="#e0a800" stroke-width="1" stroke-dasharray="3,2" opacity="0.7"/>
<text x="1226.7" y="377.0" font-size="11" text-anchor="middle" fill="#e0a800">★</text>
<line x1="1260.0" y1="379.0" x2="1260.0" y2="451.0" stroke="#e0a800" stroke-width="1" stroke-dasharray="3,2" opacity="0.7"/>
<text x="1260.0" y="377.0" font-size="11" text-anchor="middle" fill="#e0a800">★</text>
<text x="152" y="401.0" font-size="11" text-anchor="end" fill="#333">prog_rvalid</text>
<line x1="160.0" y1="407.0" x2="1260.0" y2="407.0" stroke="#eee" stroke-width="0.5"/>
<polyline points="160.0,387.0 160.0,387.0 160.0,407.0 826.7,407.0 826.7,387.0 860.0,387.0 860.0,407.0 1226.7,407.0 1226.7,387.0 1260.0,387.0" stroke="#1a8a1a" fill="none" stroke-width="1.5"/>
<text x="152" y="437.0" font-size="11" text-anchor="end" fill="#333">prog_rready</text>
<line x1="160.0" y1="443.0" x2="1260.0" y2="443.0" stroke="#eee" stroke-width="0.5"/>
<polyline points="160.0,423.0 160.0,423.0 160.0,443.0 526.7,443.0 526.7,423.0 1260.0,423.0" stroke="#1a8a1a" fill="none" stroke-width="1.5"/>
</svg>