<?xml version="1.0" encoding="UTF-8"?>
<svg xmlns="http://www.w3.org/2000/svg" width="1280" height="223" font-family="ui-monospace, Menlo, monospace">
<rect width="100%" height="100%" fill="white"/>
<text x="10" y="20" font-size="13" font-weight="bold" fill="#222">test_02_read_capabilities</text>
<text x="160" y="20" font-size="10" fill="#666">640 ns</text>
<text x="1260" y="20" font-size="10" fill="#666" text-anchor="end">850 ns</text>
<line x1="160" y1="30" x2="1260" y2="30" stroke="#888"/>
<line x1="474.3" y1="30" x2="474.3" y2="207" stroke="#eee" stroke-width="0.5"/>
<text x="474.3" y="27" font-size="9" fill="#888" text-anchor="middle">700</text>
<line x1="998.1" y1="30" x2="998.1" y2="207" stroke="#eee" stroke-width="0.5"/>
<text x="998.1" y="27" font-size="9" fill="#888" text-anchor="middle">800</text>
<text x="6" y="46.0" font-size="11" font-weight="bold" fill="#666">[prog_ar]</text>
<line x1="998.1" y1="35.0" x2="998.1" y2="107.0" stroke="#e0a800" stroke-width="1" stroke-dasharray="3,2" opacity="0.7"/>
<text x="998.1" y="33.0" font-size="11" text-anchor="middle" fill="#e0a800">★</text>
<text x="152" y="57.0" font-size="11" text-anchor="end" fill="#333">prog_arvalid</text>
<line x1="160.0" y1="63.0" x2="1260.0" y2="63.0" stroke="#eee" stroke-width="0.5"/>
<polyline points="160.0,63.0 998.1,63.0 998.1,43.0 1050.5,43.0 1050.5,63.0 1260.0,63.0" stroke="#1a8a1a" fill="none" stroke-width="1.5"/>
<text x="152" y="93.0" font-size="11" text-anchor="end" fill="#333">prog_arready</text>
<line x1="160.0" y1="99.0" x2="1260.0" y2="99.0" stroke="#eee" stroke-width="0.5"/>
<polyline points="160.0,79.0 1260.0,79.0" stroke="#1a8a1a" fill="none" stroke-width="1.5"/>
<text x="6" y="132.0" font-size="11" font-weight="bold" fill="#666">[prog_r]</text>
<line x1="1207.6" y1="121.0" x2="1207.6" y2="193.0" stroke="#e0a800" stroke-width="1" stroke-dasharray="3,2" opacity="0.7"/>
<text x="1207.6" y="119.0" font-size="11" text-anchor="middle" fill="#e0a800">★</text>
<line x1="1260.0" y1="121.0" x2="1260.0" y2="193.0" stroke="#e0a800" stroke-width="1" stroke-dasharray="3,2" opacity="0.7"/>
<text x="1260.0" y="119.0" font-size="11" text-anchor="middle" fill="#e0a800">★</text>
<text x="152" y="143.0" font-size="11" text-anchor="end" fill="#333">prog_rvalid</text>
<line x1="160.0" y1="149.0" x2="1260.0" y2="149.0" stroke="#eee" stroke-width="0.5"/>
<polyline points="160.0,149.0 1207.6,149.0 1207.6,129.0 1260.0,129.0" stroke="#1a8a1a" fill="none" stroke-width="1.5"/>
<text x="152" y="179.0" font-size="11" text-anchor="end" fill="#333">prog_rready</text>
<line x1="160.0" y1="185.0" x2="1260.0" y2="185.0" stroke="#eee" stroke-width="0.5"/>
<polyline points="160.0,185.0 736.2,185.0 736.2,165.0 1260.0,165.0" stroke="#1a8a1a" fill="none" stroke-width="1.5"/>
</svg>